<svg xmlns="http://www.w3.org/2000/svg" xmlns:xlink="http://www.w3.org/1999/xlink" x="0px" y="0px" width="64px" height="64px" viewBox="0 0 64 64" stroke-width="1"><g stroke-width="1" transform="translate(0.5, 0.5)"><polyline data-color="color-2" fill="none" stroke="#444444" stroke-width="1" stroke-linecap="square" stroke-miterlimit="10" points=" 2,8 2,2 8,2 " stroke-linejoin="miter"></polyline> <polyline data-color="color-2" fill="none" stroke="#444444" stroke-width="1" stroke-linecap="square" stroke-miterlimit="10" points=" 2,43 2,49 8,49 " stroke-linejoin="miter"></polyline> <polyline data-color="color-2" fill="none" stroke="#444444" stroke-width="1" stroke-linecap="square" stroke-miterlimit="10" points=" 49,8 49,2 43,2 " stroke-linejoin="miter"></polyline> <line data-color="color-2" fill="none" stroke="#444444" stroke-width="1" stroke-linecap="square" stroke-miterlimit="10" x1="15" y1="2" x2="22" y2="2" stroke-linejoin="miter"></line> <line data-color="color-2" fill="none" stroke="#444444" stroke-width="1" stroke-linecap="square" stroke-miterlimit="10" x1="2" y1="15" x2="2" y2="22" stroke-linejoin="miter"></line> <line data-color="color-2" fill="none" stroke="#444444" stroke-width="1" stroke-linecap="square" stroke-miterlimit="10" x1="49" y1="15" x2="49" y2="22" stroke-linejoin="miter"></line> <line data-color="color-2" fill="none" stroke="#444444" stroke-width="1" stroke-linecap="square" stroke-miterlimit="10" x1="2" y1="29" x2="2" y2="36" stroke-linejoin="miter"></line> <line data-color="color-2" fill="none" stroke="#444444" stroke-width="1" stroke-linecap="square" stroke-miterlimit="10" x1="29" y1="2" x2="36" y2="2" stroke-linejoin="miter"></line> <line data-color="color-2" fill="none" stroke="#444444" stroke-width="1" stroke-linecap="square" stroke-miterlimit="10" x1="15" y1="49" x2="22" y2="49" stroke-linejoin="miter"></line> <polygon fill="none" stroke="#444444" stroke-width="1" stroke-linecap="square" stroke-miterlimit="10" points="58,36 27,27 36,58 42,46 54,58 56,56 58,54 46,42 " stroke-linejoin="miter"></polygon></g></svg>