<?xml version="1.0" encoding="UTF-8"?>
<svg xmlns="http://www.w3.org/2000/svg" xmlns:xlink="http://www.w3.org/1999/xlink" fill="#3ea7a7" height="92.1" preserveAspectRatio="xMidYMid meet" version="1" viewBox="5.0 2.9 92.1 92.1" width="92.1" zoomAndPan="magnify">
  <g id="change1_1">
    <path d="M90.25,40.63c6.83-8.62,6.27-21.22-1.7-29.19c-7.96-7.96-20.56-8.52-29.19-1.69C58.77,7.02,56.35,5,53.52,5h-7.04 c-2.98,0-5.53,2.22-5.94,5.17l-0.59,4.22c-2.81,0.79-5.5,1.9-8.03,3.32l-3.4-2.57c-2.37-1.79-5.75-1.55-7.85,0.55l-4.98,4.98 c-2.11,2.1-2.34,5.48-0.55,7.86l2.57,3.39c-1.42,2.53-2.53,5.22-3.32,8.03l-4.22,0.59C7.22,40.95,5,43.5,5,46.48v7.04 c0,2.97,2.22,5.53,5.17,5.94l4.22,0.59c0.79,2.8,1.9,5.49,3.32,8.02l-2.57,3.4c-1.79,2.38-1.56,5.75,0.55,7.86l4.98,4.98 c2.1,2.1,5.48,2.34,7.85,0.54l3.4-2.56c2.53,1.42,5.22,2.53,8.03,3.32l0.59,4.22C40.95,92.78,43.5,95,46.48,95h7.04 c2.97,0,5.53-2.23,5.94-5.17l0.59-4.22c2.8-0.79,5.49-1.9,8.02-3.32l3.4,2.56c2.37,1.8,5.75,1.56,7.86-0.54l4.98-4.98 c2.1-2.11,2.33-5.48,0.54-7.86l-2.56-3.4c1.41-2.53,2.53-5.22,3.32-8.02l4.22-0.59c2.95-0.41,5.17-2.97,5.17-5.94v-7.04 C95,43.65,92.98,41.22,90.25,40.63z M60.27,14.27c3.51-3.51,8.12-5.26,12.73-5.26s9.22,1.75,12.73,5.26 c7.01,7.02,7.01,18.44,0,25.46c-7.02,7.01-18.44,7.01-25.46,0C53.25,32.71,53.25,21.29,60.27,14.27z M69,50c0,10.47-8.53,19-19,19 c-10.48,0-19-8.53-19-19c0-10.48,8.52-19,19-19c0.47,0,0.93,0.04,1.39,0.07c0.79,4.21,2.8,8.23,6.05,11.48 c3.25,3.26,7.28,5.27,11.49,6.06C68.96,49.07,69,49.53,69,50z M91,53.52c0,0.99-0.74,1.84-1.73,1.98l-5.54,0.77 c-0.81,0.12-1.47,0.71-1.66,1.51c-0.81,3.33-2.12,6.49-3.89,9.39c-0.43,0.7-0.38,1.59,0.11,2.25l3.37,4.46 c0.6,0.79,0.52,1.92-0.18,2.62l-4.98,4.98c-0.7,0.7-1.83,0.78-2.62,0.18l-4.46-3.37c-0.66-0.49-1.55-0.54-2.25-0.11 c-2.9,1.77-6.06,3.08-9.39,3.89c-0.8,0.19-1.4,0.85-1.51,1.66l-0.77,5.54C55.36,90.26,54.51,91,53.52,91h-7.04 c-0.99,0-1.85-0.74-1.98-1.73l-0.78-5.54c-0.11-0.81-0.71-1.47-1.51-1.66c-3.32-0.81-6.48-2.12-9.39-3.89 c-0.32-0.2-0.68-0.29-1.04-0.29c-0.43,0-0.85,0.13-1.2,0.4l-4.47,3.37c-0.79,0.6-1.91,0.52-2.62-0.18l-4.97-4.98 c-0.7-0.7-0.78-1.83-0.18-2.62l3.36-4.46c0.5-0.66,0.54-1.55,0.11-2.25c-1.77-2.9-3.08-6.06-3.88-9.39 c-0.19-0.8-0.85-1.39-1.67-1.51l-5.54-0.77C9.74,55.36,9,54.51,9,53.52v-7.04c0-0.99,0.74-1.84,1.72-1.98l5.54-0.78 c0.82-0.11,1.48-0.71,1.67-1.51c0.8-3.32,2.11-6.48,3.88-9.39c0.43-0.7,0.39-1.59-0.11-2.24l-3.36-4.46 c-0.6-0.8-0.52-1.92,0.18-2.62l4.97-4.98c0.71-0.7,1.83-0.78,2.62-0.18l4.47,3.37c0.65,0.49,1.54,0.53,2.24,0.11 c2.91-1.78,6.07-3.08,9.39-3.89c0.8-0.19,1.4-0.85,1.51-1.67l0.78-5.54C44.63,9.74,45.49,9,46.48,9h7.04 c0.99,0,1.84,0.74,1.98,1.72l0.35,2.51c-3.23,4.01-4.85,8.9-4.84,13.79C50.67,27.01,50.34,27,50,27c-12.68,0-23,10.32-23,23 s10.32,23,23,23s23-10.32,23-23c0-0.34-0.01-0.68-0.03-1.01H73c4.88,0,9.76-1.62,13.77-4.84l2.5,0.35 c0.99,0.14,1.73,0.99,1.73,1.98C91,46.48,91,53.52,91,53.52z" fill="inherit"></path>
    <path d="M50,43c-3.86,0-7,3.14-7,7s3.14,7,7,7s7-3.14,7-7S53.86,43,50,43z M50,53c-1.66,0-3-1.35-3-3c0-1.66,1.34-3,3-3 c1.65,0,3,1.34,3,3C53,51.65,51.65,53,50,53z" fill="inherit"></path>
    <path d="M68.4,34.42c0.38,0.38,0.88,0.59,1.42,0.59c0.53,0,1.03-0.21,1.41-0.59L83.25,22.4c0.78-0.78,0.78-2.05,0-2.83 s-2.05-0.78-2.83,0l-10.6,10.61l-4.25-4.24c-0.78-0.78-2.04-0.78-2.83,0c-0.78,0.78-0.78,2.05,0,2.83L68.4,34.42z" fill="inherit"></path>
  </g>
</svg>
