<?xml version="1.0" encoding="UTF-8"?>
<svg xmlns="http://www.w3.org/2000/svg" xmlns:xlink="http://www.w3.org/1999/xlink" fill="#3ea7a7" height="75.8" preserveAspectRatio="xMidYMid meet" version="1" viewBox="0.0 0.0 61.7 75.8" width="61.7" zoomAndPan="magnify">
  <g data-name="3" id="change1_1">
    <path d="M25.581,44.447,42.72,27.292a1.934,1.934,0,0,1,2.669-.008h0a1.892,1.892,0,0,1,.008,2.67L26.7,48.669a1.875,1.875,0,0,1-1.334.556h-.006a1.873,1.873,0,0,1-1.329-.548,1.84,1.84,0,0,1-.208-.247l-7.7-9.151a1.888,1.888,0,1,1,3.063-2.208ZM61.7,43.033c.046,5.622-3.221,12.255-9.2,18.676a57.246,57.246,0,0,1-8.465,7.443l-.132.086a.9.9,0,0,0-.152.106l-.125.1a46.857,46.857,0,0,1-11.857,6.2l-.538.178-.541-.17a38.452,38.452,0,0,1-3.806-1.439,2.217,2.217,0,0,0-.237-.105l-.106-.044a56.274,56.274,0,0,1-16.81-12A42.422,42.422,0,0,1,3.2,53.443l-.066-.132a1.106,1.106,0,0,0-.1-.168l-.073-.122a20.61,20.61,0,0,1-2.74-9.477L0,16.5l.132-.072L30.6,0l.117.061L61.475,16Zm-3.7-24.9L30.636,3.959,3.517,18.58l.206,24.936a17.147,17.147,0,0,0,2.291,7.789,4.24,4.24,0,0,1,.278.5,39.089,39.089,0,0,0,5.959,7.834A52.714,52.714,0,0,0,27.919,70.847a4.368,4.368,0,0,1,.459.2c.934.4,1.913.781,2.821,1.087a43.992,43.992,0,0,0,10.343-5.509,4.264,4.264,0,0,1,.516-.366,53.793,53.793,0,0,0,7.878-6.937h0c5.367-5.764,8.3-11.54,8.262-16.264Z"></path>
  </g>
</svg>
